<svg width="89" height="24" viewBox="0 0 89 24" fill="none" xmlns="http://www.w3.org/2000/svg">
<path d="M0 2.72169H9.26989V14.4168H12.0185V21.3423H0V2.72169ZM17.5408 6.73684C16.1755 6.73684 15.1695 6.46737 14.5227 5.92842C13.876 5.38947 13.5526 4.52716 13.5526 3.34148C13.5526 2.15579 13.876 1.30246 14.5227 0.781475C15.1874 0.260492 16.1935 0 17.5408 0C20.2356 0 21.5829 1.08688 21.5829 3.26063C21.5829 4.50021 21.2505 5.38947 20.5859 5.92842C19.9212 6.46737 18.9062 6.73684 17.5408 6.73684ZM13.5526 21.3423V7.35663H21.5829V21.3423H13.5526ZM23.1579 2.72169H32.4278V14.4168H35.1764V21.3423H23.1579V2.72169ZM52.5286 11.1562L52.3939 14.4707L53.0676 14.4438V20.5608C52.7442 20.8303 52.1874 21.0728 51.3968 21.2884C50.6063 21.504 49.8608 21.6118 49.1602 21.6118C48.4596 21.6118 47.9027 21.5488 47.4895 21.4232C47.0762 21.2975 46.7709 21.1627 46.5733 21.0189C46.3756 20.8573 46.2229 20.6776 46.1152 20.48C45.9535 20.1926 45.8726 19.95 45.8726 19.7524C44.8846 20.992 43.3126 21.6118 41.1568 21.6118C38.1926 21.6118 36.7105 20.3543 36.7105 17.8392C36.7105 16.3301 37.2855 15.2612 38.4352 14.6324C39.5848 13.9857 41.597 13.5994 44.4714 13.4737C44.4714 12.8449 43.7798 12.5305 42.3964 12.5305C41.4623 12.5305 40.564 12.6473 39.7017 12.8808C38.8573 13.1144 38.2465 13.3479 37.8693 13.5815L37.2764 13.9318V6.84463C37.4381 6.71889 37.6806 6.56617 38.004 6.38653C38.3274 6.18891 39.0909 5.93741 40.2945 5.632C41.4981 5.30863 42.8185 5.14695 44.2558 5.14695C47.1301 5.14695 49.2232 5.632 50.5345 6.60211C51.864 7.57221 52.5286 9.09025 52.5286 11.1562ZM44.9025 15.4408V14.3629L43.3665 14.7941V15.4408C43.3665 15.6744 43.4383 15.863 43.5821 16.0067C43.7438 16.1505 43.9324 16.2223 44.148 16.2223C44.3815 16.2223 44.5613 16.1505 44.6869 16.0067C44.8307 15.863 44.9025 15.6744 44.9025 15.4408ZM62.0735 12.8V21.3423H54.4474V5.41642H61.2112L61.4806 7.38358C61.5524 7.18596 61.7141 6.94343 61.9657 6.656C62.2173 6.36857 62.4867 6.12604 62.7741 5.92842C63.5646 5.40743 64.6156 5.14695 65.9269 5.14695C67.6876 5.14695 69.008 5.632 69.8882 6.60211C70.7865 7.57221 71.2356 8.98246 71.2356 10.8328V21.3423H63.6095V12.8C63.6095 12.5844 63.5286 12.4048 63.3669 12.2611C63.2231 12.0994 63.0436 12.0185 62.828 12.0185C62.6124 12.0185 62.4328 12.0994 62.289 12.2611C62.1453 12.4048 62.0735 12.5844 62.0735 12.8ZM83.272 16.5726H84.4577C87.2063 16.5726 88.5806 17.7134 88.5806 19.9949C88.5806 21.1985 88.1495 22.1417 87.2871 22.8244C86.4248 23.5072 84.9067 23.8484 82.733 23.8484H78.2867C76.0232 23.8484 74.4693 23.552 73.6248 22.9592C72.7985 22.3663 72.3853 21.5758 72.3853 20.5878C72.3853 18.5937 73.4272 17.5966 75.5112 17.5966H76.104C75.7985 17.5427 75.5202 17.426 75.2686 17.2463C75.017 17.0667 74.8914 16.8421 74.8914 16.5726C74.8914 16.0337 75.3316 15.6834 76.2118 15.5217C75.0979 15.5217 74.2086 15.1444 73.544 14.3899C72.8794 13.6354 72.5469 12.5395 72.5469 11.1023C72.5469 9.10821 73.0589 7.66204 74.0829 6.76379C75.1248 5.84758 76.8137 5.38948 79.149 5.38948H88.4998V12.9347H87.5836C87.2962 14.9648 85.8589 15.9798 83.272 15.9798V16.5726ZM81.8707 18.459H78.9065C78.673 18.459 78.4844 18.5308 78.3406 18.6745C78.1968 18.8003 78.125 18.9799 78.125 19.2135C78.125 19.4291 78.1968 19.6177 78.3406 19.7794C78.4844 19.9231 78.673 19.9949 78.9065 19.9949H81.8707C82.1042 19.9949 82.2928 19.9231 82.4366 19.7794C82.5804 19.6177 82.6522 19.4291 82.6522 19.2135C82.6522 18.9799 82.5804 18.8003 82.4366 18.6745C82.2928 18.5308 82.1042 18.459 81.8707 18.459ZM79.6072 12.2072V13.8779C79.6072 14.3809 79.8587 14.6324 80.3617 14.6324C80.5773 14.6324 80.7568 14.5606 80.9006 14.4168C81.0623 14.2731 81.1432 14.0935 81.1432 13.8779V12.2072C81.1432 11.9736 81.0623 11.785 80.9006 11.6413C80.7568 11.4975 80.5682 11.4257 80.3347 11.4257C80.1192 11.4257 79.9396 11.4975 79.7958 11.6413C79.6701 11.785 79.6072 11.9736 79.6072 12.2072Z" fill="#B36ED5"/>
</svg>
